<?xml version="1.0" standalone="no"?>
<!DOCTYPE svg PUBLIC "-//W3C//DTD SVG 20010904//EN"
 "http://www.w3.org/TR/2001/REC-SVG-20010904/DTD/svg10.dtd">
<svg version="1.0" xmlns="http://www.w3.org/2000/svg"
 width="1200.000000pt" height="1200.000000pt" viewBox="0 0 1200.000000 1200.000000"
 preserveAspectRatio="xMidYMid meet">

<g transform="translate(0.000000,1200.000000) scale(0.100000,-0.100000)"
fill="#000000" stroke="none">
<path d="M0 6000 l0 -6000 6000 0 6000 0 0 6000 0 6000 -6000 0 -6000 0 0
-6000z m8628 1148 l-3 -2473 -2575 0 -2575 0 -3 2473 -2 2472 2580 0 2580 0
-2 -2472z m-1659 -3839 c250 -57 399 -318 336 -587 -39 -163 -150 -284 -306
-333 -83 -26 -235 -26 -318 0 -196 61 -321 239 -321 456 0 215 124 394 318
456 65 20 219 25 291 8z m3095 -9 c32 -11 75 -32 96 -48 l38 -28 -26 -49 c-40
-72 -49 -75 -129 -38 -86 40 -112 46 -164 34 -51 -12 -87 -44 -95 -88 -12 -64
35 -104 171 -149 110 -37 166 -67 202 -108 43 -48 56 -96 51 -181 -8 -127 -83
-224 -202 -260 -70 -21 -190 -19 -267 5 -62 19 -169 82 -169 99 0 5 15 31 33
57 37 56 63 65 104 36 154 -108 323 -80 323 54 0 25 -5 54 -10 65 -14 25 -67
52 -160 79 -187 56 -250 123 -250 267 0 129 73 225 200 264 52 16 195 10 254
-11z m-8024 -190 l0 -200 210 0 210 0 0 200 0 200 95 0 95 0 0 -465 0 -465
-95 0 -95 0 0 205 0 205 -210 0 -210 0 0 -205 0 -205 -95 0 -95 0 0 465 0 465
95 0 95 0 0 -200z m1690 -195 l0 -395 185 0 185 0 0 -70 0 -70 -280 0 -280 0
0 465 0 465 95 0 95 0 0 -395z m1787 366 c182 -81 192 -315 19 -403 l-29 -15
37 -13 c46 -15 101 -62 123 -104 11 -20 17 -55 16 -97 0 -88 -38 -160 -106
-206 -84 -56 -125 -63 -374 -63 l-223 0 0 466 0 466 243 -4 c229 -3 245 -4
294 -27z m3223 -41 l0 -70 -140 0 -140 0 0 -395 0 -395 -95 0 -95 0 0 395 0
395 -140 0 -140 0 0 70 0 70 375 0 375 0 0 -70z"/>
<path d="M3620 7150 l0 -2330 2430 0 2430 0 0 2330 0 2330 -2430 0 -2430 0 0
-2330z m1450 1130 l0 -900 980 0 980 0 0 900 0 900 395 0 395 0 0 -2095 0
-2095 -395 0 -395 0 0 915 0 915 -980 0 -980 0 0 -915 0 -915 -395 0 -395 0 0
2095 0 2095 395 0 395 0 0 -900z"/>
<path d="M6779 3160 c-152 -26 -244 -173 -225 -360 17 -168 121 -271 275 -273
185 -2 295 116 295 318 0 104 -23 170 -80 234 -62 69 -161 99 -265 81z"/>
<path d="M5170 3044 l0 -137 98 5 c161 9 210 46 199 151 -8 87 -67 117 -228
117 l-69 0 0 -136z"/>
<path d="M5170 2656 l0 -136 85 0 c115 0 176 14 210 50 35 36 44 103 21 148
-26 51 -66 64 -198 70 l-118 5 0 -137z"/>
</g>
</svg>
